<svg width="21" height="21" viewBox="0 0 21 21" fill="none" xmlns="http://www.w3.org/2000/svg">
<path d="M6.97578 6.90488C7.18029 6.90488 7.37642 6.82364 7.52103 6.67904C7.66563 6.53443 7.74687 6.3383 7.74687 6.13379C7.74687 5.92928 7.66563 5.73315 7.52103 5.58854C7.37642 5.44394 7.18029 5.3627 6.97578 5.3627C6.77127 5.3627 6.57514 5.44394 6.43054 5.58854C6.28593 5.73315 6.20469 5.92928 6.20469 6.13379C6.20469 6.3383 6.28593 6.53443 6.43054 6.67904C6.57514 6.82364 6.77127 6.90488 6.97578 6.90488ZM7.74687 9.21816C7.74687 9.42267 7.66563 9.6188 7.52103 9.76341C7.37642 9.90802 7.18029 9.98926 6.97578 9.98926C6.77127 9.98926 6.57514 9.90802 6.43054 9.76341C6.28593 9.6188 6.20469 9.42267 6.20469 9.21816C6.20469 9.01366 6.28593 8.81753 6.43054 8.67292C6.57514 8.52831 6.77127 8.44707 6.97578 8.44707C7.18029 8.44707 7.37642 8.52831 7.52103 8.67292C7.66563 8.81753 7.74687 9.01366 7.74687 9.21816ZM6.97578 13.0736C7.07704 13.0736 7.17731 13.0537 7.27087 13.0149C7.36442 12.9762 7.44942 12.9194 7.52103 12.8478C7.59263 12.7762 7.64943 12.6912 7.68818 12.5976C7.72693 12.5041 7.74687 12.4038 7.74687 12.3025C7.74687 12.2013 7.72693 12.101 7.68818 12.0075C7.64943 11.9139 7.59263 11.8289 7.52103 11.7573C7.44942 11.6857 7.36442 11.6289 7.27087 11.5901C7.17731 11.5514 7.07704 11.5314 6.97578 11.5314C6.77127 11.5314 6.57514 11.6127 6.43054 11.7573C6.28593 11.9019 6.20469 12.098 6.20469 12.3025C6.20469 12.507 6.28593 12.7032 6.43054 12.8478C6.57514 12.9924 6.77127 13.0736 6.97578 13.0736ZM10.8312 6.13379C10.8312 6.3383 10.75 6.53443 10.6054 6.67904C10.4608 6.82364 10.2647 6.90488 10.0602 6.90488C9.85565 6.90488 9.65952 6.82364 9.51491 6.67904C9.3703 6.53443 9.28906 6.3383 9.28906 6.13379C9.28906 5.92928 9.3703 5.73315 9.51491 5.58854C9.65952 5.44394 9.85565 5.3627 10.0602 5.3627C10.2647 5.3627 10.4608 5.44394 10.6054 5.58854C10.75 5.73315 10.8312 5.92928 10.8312 6.13379ZM10.0602 9.98926C10.2647 9.98926 10.4608 9.90802 10.6054 9.76341C10.75 9.6188 10.8312 9.42267 10.8312 9.21816C10.8312 9.01366 10.75 8.81753 10.6054 8.67292C10.4608 8.52831 10.2647 8.44707 10.0602 8.44707C9.85565 8.44707 9.65952 8.52831 9.51491 8.67292C9.3703 8.81753 9.28906 9.01366 9.28906 9.21816C9.28906 9.42267 9.3703 9.6188 9.51491 9.76341C9.65952 9.90802 9.85565 9.98926 10.0602 9.98926ZM10.8312 12.3025C10.8312 12.507 10.75 12.7032 10.6054 12.8478C10.4608 12.9924 10.2647 13.0736 10.0602 13.0736C9.85565 13.0736 9.65952 12.9924 9.51491 12.8478C9.3703 12.7032 9.28906 12.507 9.28906 12.3025C9.28906 12.098 9.3703 11.9019 9.51491 11.7573C9.65952 11.6127 9.85565 11.5314 10.0602 11.5314C10.2647 11.5314 10.4608 11.6127 10.6054 11.7573C10.75 11.9019 10.8312 12.098 10.8312 12.3025ZM13.1445 13.0736C13.2458 13.0736 13.3461 13.0537 13.4396 13.0149C13.5332 12.9762 13.6182 12.9194 13.6898 12.8478C13.7614 12.7762 13.8182 12.6912 13.8569 12.5976C13.8957 12.5041 13.9156 12.4038 13.9156 12.3025C13.9156 12.2013 13.8957 12.101 13.8569 12.0075C13.8182 11.9139 13.7614 11.8289 13.6898 11.7573C13.6182 11.6857 13.5332 11.6289 13.4396 11.5901C13.3461 11.5514 13.2458 11.5314 13.1445 11.5314C12.94 11.5314 12.7439 11.6127 12.5993 11.7573C12.4547 11.9019 12.3734 12.098 12.3734 12.3025C12.3734 12.507 12.4547 12.7032 12.5993 12.8478C12.7439 12.9924 12.94 13.0736 13.1445 13.0736ZM4.6625 18.7283C4.52616 18.7283 4.39541 18.6742 4.299 18.5778C4.2026 18.4813 4.14844 18.3506 4.14844 18.2143V3.82051C4.14844 3.41149 4.31092 3.01923 4.60013 2.73002C4.88935 2.4408 5.28161 2.27832 5.69062 2.27832H11.8594C12.2684 2.27832 12.6606 2.4408 12.9499 2.73002C13.2391 3.01923 13.4016 3.41149 13.4016 3.82051V8.44707H14.9437C15.3528 8.44707 15.745 8.60955 16.0342 8.89877C16.3235 9.18798 16.4859 9.58024 16.4859 9.98926V18.2143C16.4859 18.3506 16.4318 18.4813 16.3354 18.5778C16.239 18.6742 16.1082 18.7283 15.9719 18.7283H4.6625ZM5.17656 3.82051V17.7002H7.23281V15.1299C7.23281 14.9935 7.28697 14.8628 7.38338 14.7664C7.47978 14.67 7.61054 14.6158 7.74687 14.6158H12.8875C13.0238 14.6158 13.1546 14.67 13.251 14.7664C13.3474 14.8628 13.4016 14.9935 13.4016 15.1299V17.7002H15.4578V9.98926C15.4578 9.85292 15.4037 9.72217 15.3072 9.62576C15.2108 9.52936 15.0801 9.4752 14.9437 9.4752H12.8875C12.7512 9.4752 12.6204 9.42104 12.524 9.32463C12.4276 9.22823 12.3734 9.09747 12.3734 8.96113V3.82051C12.3734 3.68417 12.3193 3.55342 12.2229 3.45701C12.1265 3.36061 11.9957 3.30645 11.8594 3.30645H5.69062C5.55429 3.30645 5.42353 3.36061 5.32713 3.45701C5.23072 3.55342 5.17656 3.68417 5.17656 3.82051ZM12.3734 15.6439H10.8312V17.7002H12.3734V15.6439ZM9.80312 15.6439H8.26094V17.7002H9.80312V15.6439Z" fill="white"/>
</svg>
