<svg width="101" height="100" viewBox="0 0 101 100" fill="none" xmlns="http://www.w3.org/2000/svg">
<rect x="0.169922" width="100" height="100" rx="50" fill="#071420" fill-opacity="0.5"/>
<g clip-path="url(#clip0_19_59)">
<path d="M32.9166 53.0086H36.814C37.3408 53.0086 37.7681 52.5818 37.7681 52.0557V48.3345C37.7681 47.8081 37.3408 47.3816 36.814 47.3816H32.9166C32.3901 47.3816 31.9629 47.8081 31.9629 48.3345V52.0557C31.9629 52.5818 32.3898 53.0086 32.9166 53.0086ZM33.8706 49.2874H35.8604V51.1028H33.8706V49.2874Z" fill="white"/>
<path d="M32.9166 60.5236H36.814C37.3408 60.5236 37.7681 60.0971 37.7681 59.5707V55.8498C37.7681 55.3234 37.3408 54.8969 36.814 54.8969H32.9166C32.3901 54.8969 31.9629 55.3234 31.9629 55.8498V59.5707C31.9629 60.0971 32.3898 60.5236 32.9166 60.5236ZM33.8706 56.8024H35.8604V58.6178H33.8706V56.8024Z" fill="white"/>
<path d="M47.0103 44.1593H51.1077C51.6341 44.1593 52.0614 43.7325 52.0614 43.2064V39.2937C52.0614 38.7672 51.6341 38.3408 51.1077 38.3408H47.0103C46.4835 38.3408 46.0566 38.7672 46.0566 39.2937V43.2064C46.0563 43.7325 46.4835 44.1593 47.0103 44.1593ZM47.964 40.2466H50.1536V42.2535H47.964V40.2466Z" fill="white"/>
<path d="M55.4908 44.1593H59.5908C60.1176 44.1593 60.5445 43.7325 60.5445 43.2064V39.2937C60.5445 38.7672 60.1176 38.3408 59.5908 38.3408H55.4908C54.964 38.3408 54.5371 38.7672 54.5371 39.2937V43.2064C54.5371 43.7325 54.964 44.1593 55.4908 44.1593ZM56.4445 40.2466H58.6368V42.2535H56.4445V40.2466Z" fill="white"/>
<path d="M51.2092 46.6038H47.1123C46.5854 46.6038 46.1582 47.0306 46.1582 47.5567V51.4698C46.1582 51.9958 46.5854 52.4227 47.1123 52.4227H51.2092C51.7361 52.4227 52.1633 51.9958 52.1633 51.4698V47.5567C52.1633 47.0306 51.7364 46.6038 51.2092 46.6038ZM50.2556 50.5169H48.0659V48.5096H50.2556V50.5169Z" fill="white"/>
<path d="M59.6917 46.6038H55.5943C55.0675 46.6038 54.6406 47.0306 54.6406 47.5567V51.4698C54.6406 51.9958 55.0675 52.4227 55.5943 52.4227H59.6917C60.2185 52.4227 60.6453 51.9958 60.6453 51.4698V47.5567C60.6453 47.0306 60.2185 46.6038 59.6917 46.6038ZM58.7376 50.5169H56.548V48.5096H58.7376V50.5169Z" fill="white"/>
<path d="M74.5779 55.3001C73.9244 53.0582 72.7495 50.6996 71.4346 48.9906C70.5999 47.9054 69.5707 46.7957 68.2634 46.7953C68.263 46.7953 68.2626 46.7953 68.2626 46.7953C67.1548 46.7953 66.2607 47.5666 65.4688 48.5092V33.6815L65.7518 33.6819C67.283 33.6819 68.5289 32.4352 68.5289 30.9033C68.5289 29.3713 67.283 28.125 65.7518 28.125H40.6927C39.1615 28.125 37.9156 29.3713 37.9156 30.9033C37.9156 32.4352 39.1615 33.6819 40.6927 33.6819H40.9757V37.9463H28.0279C26.452 37.9463 25.1699 39.2277 25.1699 40.8028C25.1699 42.1162 26.0614 43.2247 27.2714 43.5574V69.9219H26.845C26.3181 69.9219 25.8913 70.3484 25.8913 70.8748C25.8913 71.4008 26.3181 71.8277 26.845 71.8277H69.3304C69.8572 71.8277 70.2844 71.4008 70.2844 70.8748C70.2844 70.3659 69.885 69.9512 69.3822 69.9245V65.3339C72.4569 65.0723 73.8622 63.5471 74.5023 62.2486C75.5937 60.0357 75.1459 57.2487 74.5779 55.3001ZM28.0279 39.8522H40.9757V41.7538H28.0279C27.5038 41.7538 27.0777 41.3273 27.0777 40.8032C27.0777 40.2786 27.5038 39.8522 28.0279 39.8522ZM40.9757 69.9219H29.1788V43.6596H40.9757V69.9219ZM51.9685 69.9219H48.6093V59.935H51.9685V69.9219ZM57.2355 69.9219H53.8763V59.935H57.2355V69.9219ZM63.561 69.9219H59.1432V58.9821C59.1432 58.456 58.716 58.0292 58.1892 58.0292H47.6556C47.1288 58.0292 46.7016 58.456 46.7016 58.9821V69.9219H42.8835V33.6819H49.4219C49.9487 33.6819 50.3759 33.255 50.3759 32.729C50.3759 32.2025 49.9487 31.7761 49.4219 31.7761H40.6927C40.2216 31.7761 39.8233 31.3763 39.8233 30.9033C39.8233 30.4222 40.2132 30.0308 40.6927 30.0308H65.7518C66.2313 30.0308 66.6212 30.4222 66.6212 30.9033C66.6212 31.3763 66.2229 31.7761 65.7522 31.7761L57.02 31.7734C57.02 31.7734 57.02 31.7734 57.0196 31.7734C56.4932 31.7734 56.0659 32.1999 56.0659 32.7259C56.0655 33.2523 56.4924 33.6788 57.0192 33.6792L63.561 33.6811V51.3855C62.4155 53.5629 61.6815 55.9776 61.5404 58.0467C61.366 60.6049 62.0634 62.6053 63.561 63.8691V69.9219ZM67.4745 69.9219H65.4688V64.7644C65.9444 65.0455 66.5826 65.2489 67.4745 65.332V69.9219ZM72.7914 61.4063C72.2185 62.5675 71.0725 63.2412 69.3822 63.4186V59.4257L70.7929 58.0845C71.1748 57.7217 71.1896 57.1186 70.8265 56.7371C70.4633 56.3561 69.8595 56.3412 69.478 56.704L69.3822 56.7947V53.7487C69.3822 53.2227 68.9554 52.7958 68.4286 52.7958C67.9018 52.7958 67.4749 53.2227 67.4749 53.7487V55.4749L67.3826 55.3867C67.0011 55.0236 66.3972 55.0381 66.0341 55.4192C65.6705 55.7999 65.685 56.403 66.0661 56.7661L67.4749 58.1078V59.3533L66.7051 58.8055C66.2759 58.5003 65.6805 58.6002 65.3749 59.0286C65.0694 59.4574 65.1693 60.0525 65.5984 60.3577L67.4749 61.6928V63.4182C65.7247 63.2347 64.5315 62.5244 63.9253 61.2953C62.7527 58.9176 63.7495 55.1411 65.2265 52.3163C65.2341 52.3014 65.2418 52.2869 65.2494 52.2724C65.661 51.4908 66.1089 50.7832 66.5567 50.2007C67.5108 48.9613 68.0112 48.7011 68.2626 48.7011H68.263C68.5114 48.7011 69.0008 48.9529 69.9224 50.1518C72.0731 52.9476 74.2666 58.4141 72.7914 61.4063Z" fill="white"/>
<path d="M53.2403 31.776H53.2213C52.6944 31.776 52.2676 32.2025 52.2676 32.729C52.2676 33.255 52.6944 33.6819 53.2213 33.6819H53.2403C53.7671 33.6819 54.194 33.255 54.194 32.729C54.194 32.2025 53.7671 31.776 53.2403 31.776Z" fill="white"/>
</g>
<defs>
<clipPath id="clip0_19_59">
<rect width="50" height="50" fill="white" transform="translate(25.1699 25)"/>
</clipPath>
</defs>
</svg>
