<svg width="17" height="16" viewBox="0 0 17 16" fill="none" xmlns="http://www.w3.org/2000/svg">
<g clip-path="url(#clip0_901_607)">
<path d="M16.5875 15.4886L12.0988 10.8205C13.2437 9.67232 13.953 8.08942 13.953 6.34369C13.953 2.8456 11.1074 0 7.60932 0C4.11122 0 1.26562 2.8456 1.26562 6.34369C1.26562 9.84179 4.11122 12.6874 7.60932 12.6874C9.14479 12.6874 10.554 12.1385 11.6524 11.2277L16.1519 15.9073C16.2111 15.9692 16.2902 16 16.3697 16C16.4452 16 16.5204 15.9719 16.579 15.9157C16.6992 15.8 16.7028 15.6088 16.5875 15.4886ZM7.60932 12.0832C4.44442 12.0832 1.86979 9.50859 1.86979 6.34369C1.86979 3.17879 4.44442 0.604161 7.60932 0.604161C10.7742 0.604161 13.3488 3.17879 13.3488 6.34369C13.3488 9.50859 10.7739 12.0832 7.60932 12.0832Z" fill="white"/>
</g>
<defs>
<clipPath id="clip0_901_607">
<rect width="16" height="16" fill="white" transform="translate(0.96875)"/>
</clipPath>
</defs>
</svg>
