<svg width="101" height="100" viewBox="0 0 101 100" fill="none" xmlns="http://www.w3.org/2000/svg">
<rect x="0.390625" width="100" height="100" rx="50" fill="#071420" fill-opacity="0.5"/>
<path d="M69.9227 44.9922L70.9501 45.6898C71.0805 45.7781 71.2329 45.825 71.3891 45.825C71.4375 45.825 71.4875 45.8203 71.536 45.8109C71.7391 45.7719 71.9188 45.6539 72.0352 45.482L73.7899 42.8953C74.0329 42.5383 73.9391 42.0523 73.5821 41.8102L50.8305 26.3719C50.5649 26.1922 50.2188 26.1922 49.9532 26.3719L27.2001 41.8109C26.843 42.0531 26.7501 42.5391 26.9922 42.8961L28.7469 45.4828C28.8626 45.6547 29.043 45.7727 29.2461 45.8117C29.4508 45.8508 29.661 45.8062 29.8321 45.6906L30.8602 44.9922V52.8086C30.4024 53.0086 30.0282 53.3781 29.8321 53.8641C28.5188 57.1109 26.954 61.3781 26.954 63.2812C26.954 66.0859 28.5868 68.2641 30.8602 68.6742V71.875H26.954V73.4375H73.829V71.875H69.9227V44.9922ZM29.6016 43.9586L28.7243 42.6641L50.3915 27.9617L72.0586 42.6641L71.1813 43.9578L50.8305 30.1484C50.6977 30.0586 50.5446 30.0133 50.3915 30.0133C50.2383 30.0133 50.0852 30.0586 49.9524 30.1484L29.6016 43.9586ZM28.5165 63.2812C28.5165 62.0117 29.5235 58.793 31.2797 54.45C31.3696 54.2289 31.5626 54.2055 31.6415 54.2055C31.7204 54.2055 31.9133 54.2289 32.0032 54.45C33.7594 58.793 34.7665 62.0117 34.7665 63.2812C34.7665 65.5445 33.4516 67.1875 31.6415 67.1875C29.8313 67.1875 28.5165 65.5445 28.5165 63.2812ZM32.4227 68.6742C34.6961 68.2641 36.329 66.0859 36.329 63.2812C36.329 61.3781 34.7641 57.1109 33.4508 53.8641C33.2547 53.3781 32.8805 53.0086 32.4227 52.8086V43.932L50.3915 31.7391L68.3602 43.932V59.1391L68.229 58.9422C67.9391 58.507 67.2188 58.507 66.929 58.9422L65.3665 61.2859C65.2813 61.4133 65.2352 61.5648 65.2352 61.7187V63.2812H63.6727V61.7187C63.6727 61.5648 63.6266 61.4133 63.5415 61.2852L61.979 58.9414C61.6891 58.5062 60.9688 58.5062 60.679 58.9414L59.1165 61.2852C59.0313 61.4133 58.9852 61.5648 58.9852 61.7187V63.2812H57.4227V61.7187C57.4227 61.5648 57.3766 61.4133 57.2915 61.2852L55.729 58.9414C55.4391 58.5062 54.7188 58.5062 54.429 58.9414L52.8665 61.2852C52.7813 61.4133 52.7352 61.5648 52.7352 61.7187V71.875H48.0477V57.0312C48.0477 56.5992 47.6985 56.25 47.2665 56.25H38.6727C38.2407 56.25 37.8915 56.5992 37.8915 57.0312V71.875H32.4227V68.6742ZM55.8602 71.875H54.2977V61.9555L55.079 60.7836L55.8602 61.9555V71.875ZM57.4227 64.8437H58.9852V66.4062H57.4227V64.8437ZM57.4227 67.9687H58.9852V71.875H57.4227V67.9687ZM62.1102 71.875H60.5477V61.9555L61.329 60.7836L62.1102 61.9555V71.875ZM63.6727 64.8437H65.2352V66.4062H63.6727V64.8437ZM63.6727 67.9687H65.2352V71.875H63.6727V67.9687ZM46.4852 71.875H39.454V57.8125H46.4852V71.875ZM66.7977 71.875V61.9555L67.579 60.7836L68.3602 61.9555V71.875H66.7977Z" fill="white"/>
<path d="M48.0469 50.7812H52.7344C54.4578 50.7812 55.8594 49.3797 55.8594 47.6562V42.9688C55.8594 41.2453 54.4578 39.8438 52.7344 39.8438H48.0469C46.3234 39.8438 44.9219 41.2453 44.9219 42.9688V47.6562C44.9219 49.3797 46.3234 50.7812 48.0469 50.7812ZM46.4844 47.6562V46.0938H49.6094V49.2188H48.0469C47.1852 49.2188 46.4844 48.518 46.4844 47.6562ZM52.7344 49.2188H51.1719V46.0938H54.2969V47.6562C54.2969 48.518 53.5961 49.2188 52.7344 49.2188ZM54.2969 42.9688V44.5312H51.1719V41.4062H52.7344C53.5961 41.4062 54.2969 42.107 54.2969 42.9688ZM48.0469 41.4062H49.6094V44.5312H46.4844V42.9688C46.4844 42.107 47.1852 41.4062 48.0469 41.4062Z" fill="white"/>
<path d="M43.3594 64.0625H44.9219V65.625H43.3594V64.0625Z" fill="white"/>
</svg>
