<svg width="22" height="22" viewBox="0 0 22 22" fill="none" xmlns="http://www.w3.org/2000/svg">
<g clip-path="url(#clip0_901_911)">
<path d="M15.675 5.64766H17.0458M6.76458 1.53516H14.9896C16.4439 1.53516 17.8386 2.11286 18.8669 3.14119C19.8952 4.16951 20.4729 5.56422 20.4729 7.01849V15.2435C20.4729 16.6978 19.8952 18.0925 18.8669 19.1208C17.8386 20.1491 16.4439 20.7268 14.9896 20.7268H6.76458C5.31031 20.7268 3.91561 20.1491 2.88728 19.1208C1.85896 18.0925 1.28125 16.6978 1.28125 15.2435V7.01849C1.28125 5.56422 1.85896 4.16951 2.88728 3.14119C3.91561 2.11286 5.31031 1.53516 6.76458 1.53516ZM10.8771 15.2435C9.78638 15.2435 8.74035 14.8102 7.96911 14.039C7.19786 13.2677 6.76458 12.2217 6.76458 11.131C6.76458 10.0403 7.19786 8.99426 7.96911 8.22301C8.74035 7.45177 9.78638 7.01849 10.8771 7.01849C11.9678 7.01849 13.0138 7.45177 13.7851 8.22301C14.5563 8.99426 14.9896 10.0403 14.9896 11.131C14.9896 12.2217 14.5563 13.2677 13.7851 14.039C13.0138 14.8102 11.9678 15.2435 10.8771 15.2435Z" stroke="white" stroke-width="1.02813"/>
</g>
<defs>
<clipPath id="clip0_901_911">
<rect width="20.5625" height="20.5625" fill="white" transform="translate(0.597656 0.850098)"/>
</clipPath>
</defs>
</svg>
