<svg width="22" height="22" viewBox="0 0 22 22" fill="none" xmlns="http://www.w3.org/2000/svg">
<path d="M5.54395 4.06299C5.11883 4.06602 4.71198 4.23624 4.41136 4.53685C4.11075 4.83746 3.94053 5.24431 3.9375 5.66943V16.5933C3.9375 17.4717 4.66554 18.1997 5.54395 18.1997H16.4678C17.3462 18.1997 18.0742 17.4717 18.0742 16.5933V5.66943C18.0742 4.79103 17.3462 4.06299 16.4678 4.06299H5.54395ZM5.54395 5.34814H16.4678C16.6509 5.34814 16.7891 5.4863 16.7891 5.66943V16.5933C16.7899 16.6357 16.7822 16.6779 16.7664 16.7172C16.7506 16.7566 16.7269 16.7924 16.6969 16.8224C16.6669 16.8524 16.6311 16.876 16.5918 16.8919C16.5524 16.9077 16.5102 16.9154 16.4678 16.9146H5.54395C5.50149 16.9155 5.45928 16.9079 5.41986 16.8921C5.38044 16.8763 5.34464 16.8526 5.31461 16.8226C5.28458 16.7926 5.26095 16.7568 5.24514 16.7173C5.22934 16.6779 5.22169 16.6357 5.22266 16.5933V5.66943C5.22266 5.4863 5.36081 5.34814 5.54395 5.34814ZM7.43184 6.45274C7.28458 6.44918 7.1381 6.47512 7.00102 6.52902C6.86394 6.58292 6.73902 6.66369 6.63361 6.76658C6.52821 6.86947 6.44445 6.99241 6.38726 7.12815C6.33007 7.2639 6.30061 7.40971 6.30061 7.55701C6.30061 7.70431 6.33007 7.85012 6.38726 7.98586C6.44445 8.12161 6.52821 8.24454 6.63361 8.34743C6.73902 8.45033 6.86394 8.5311 7.00102 8.585C7.1381 8.63889 7.28458 8.66483 7.43184 8.66128C7.7201 8.65432 7.99421 8.53493 8.19563 8.3286C8.39704 8.12226 8.50979 7.84535 8.50979 7.55701C8.50979 7.26866 8.39704 6.99175 8.19563 6.78542C7.99421 6.57909 7.7201 6.45969 7.43184 6.45274ZM13.2343 9.38418C12.3135 9.38418 11.7011 9.8886 11.448 10.368H11.4075V9.5249H9.5999V15.6294H11.4878V12.617C11.4878 11.8215 11.6459 11.051 12.6322 11.051C13.6038 11.051 13.6167 11.9493 13.6167 12.6575V15.6294H15.5039V12.2758C15.5039 10.6346 15.1543 9.38418 13.2343 9.38418ZM6.50781 9.5249V15.6294H8.41563V9.5249H6.50781Z" fill="white"/>
</svg>
