<svg width="101" height="100" viewBox="0 0 101 100" fill="none" xmlns="http://www.w3.org/2000/svg">
<rect x="0.951172" width="100" height="100" rx="50" fill="#071420" fill-opacity="0.5"/>
<path d="M62.4377 73.6487H39.4647C39.2855 73.6487 39.1137 73.5775 38.987 73.4507C38.8602 73.324 38.7891 73.1522 38.7891 72.973V27.027C38.789 26.9235 38.8128 26.8214 38.8585 26.7286C38.9041 26.6357 38.9705 26.5546 39.0525 26.4914C39.1345 26.4283 39.23 26.3848 39.3314 26.3644C39.4329 26.344 39.5377 26.3472 39.6377 26.3737L62.6107 32.4547C62.7548 32.4929 62.8823 32.5777 62.9732 32.6959C63.0642 32.8141 63.1134 32.959 63.1134 33.1081V72.973C63.1134 73.1522 63.0422 73.324 62.9155 73.4507C62.7888 73.5775 62.6169 73.6487 62.4377 73.6487ZM40.1404 72.2973H61.762V33.6284L40.1404 27.9054V72.2973Z" fill="white"/>
<path d="M73.9239 73.6487H62.4374C62.2582 73.6487 62.0863 73.5775 61.9596 73.4507C61.8329 73.324 61.7617 73.1522 61.7617 72.973V40.5405C61.7617 40.3613 61.8329 40.1895 61.9596 40.0628C62.0863 39.9361 62.2582 39.8649 62.4374 39.8649H73.9239C74.1031 39.8649 74.2749 39.9361 74.4017 40.0628C74.5284 40.1895 74.5996 40.3613 74.5996 40.5405V72.973C74.5996 73.1522 74.5284 73.324 74.4017 73.4507C74.2749 73.5775 74.1031 73.6487 73.9239 73.6487ZM63.1131 72.2973H73.2482V41.2162H63.1131V72.2973Z" fill="white"/>
<path d="M27.9784 53.0203C27.7992 53.0203 27.6273 52.9491 27.5006 52.8224C27.3739 52.6956 27.3027 52.5238 27.3027 52.3446V50.3784C27.3027 50.1992 27.3739 50.0273 27.5006 49.9006C27.6273 49.7739 27.7992 49.7027 27.9784 49.7027C28.1576 49.7027 28.3295 49.7739 28.4562 49.9006C28.5829 50.0273 28.6541 50.1992 28.6541 50.3784V52.3446C28.6541 52.5238 28.5829 52.6956 28.4562 52.8224C28.3295 52.9491 28.1576 53.0203 27.9784 53.0203Z" fill="white"/>
<path d="M39.4649 73.6487H27.9784C27.7992 73.6487 27.6273 73.5775 27.5006 73.4507C27.3739 73.324 27.3027 73.1522 27.3027 72.973V63.8108C27.3027 63.6316 27.3739 63.4598 27.5006 63.333C27.6273 63.2063 27.7992 63.1351 27.9784 63.1351C28.1576 63.1351 28.3295 63.2063 28.4562 63.333C28.5829 63.4598 28.6541 63.6316 28.6541 63.8108V72.2973H38.7892V34.4595H28.6541V45.6486C28.6541 45.8278 28.5829 45.9997 28.4562 46.1264C28.3295 46.2531 28.1576 46.3243 27.9784 46.3243C27.7992 46.3243 27.6273 46.2531 27.5006 46.1264C27.3739 45.9997 27.3027 45.8278 27.3027 45.6486V33.7838C27.3027 33.6046 27.3739 33.4327 27.5006 33.306C27.6273 33.1793 27.7992 33.1081 27.9784 33.1081H39.4649C39.6441 33.1081 39.816 33.1793 39.9427 33.306C40.0694 33.4327 40.1406 33.6046 40.1406 33.7838V72.973C40.1406 73.1522 40.0694 73.324 39.9427 73.4507C39.816 73.5775 39.6441 73.6487 39.4649 73.6487Z" fill="white"/>
<path d="M27.9784 59.7568C27.7992 59.7568 27.6273 59.6856 27.5006 59.5589C27.3739 59.4321 27.3027 59.2603 27.3027 59.0811V57.0743C27.3027 56.8951 27.3739 56.7233 27.5006 56.5966C27.6273 56.4698 27.7992 56.3987 27.9784 56.3987C28.1576 56.3987 28.3295 56.4698 28.4562 56.5966C28.5829 56.7233 28.6541 56.8951 28.6541 57.0743V59.0811C28.6541 59.2603 28.5829 59.4321 28.4562 59.5589C28.3295 59.6856 28.1576 59.7568 27.9784 59.7568Z" fill="white"/>
<path d="M39.4652 43.0182H32.9335C32.7543 43.0182 32.5824 42.9471 32.4557 42.8203C32.329 42.6936 32.2578 42.5218 32.2578 42.3426V38.7385C32.2578 38.5593 32.329 38.3874 32.4557 38.2607C32.5824 38.134 32.7543 38.0628 32.9335 38.0628H39.4652C39.6444 38.0628 39.8163 38.134 39.943 38.2607C40.0697 38.3874 40.1409 38.5593 40.1409 38.7385V42.3426C40.1409 42.5218 40.0697 42.6936 39.943 42.8203C39.8163 42.9471 39.6444 43.0182 39.4652 43.0182ZM33.6092 41.6669H38.7896V39.4142H33.6092V41.6669Z" fill="white"/>
<path d="M39.4652 51.5764H32.9335C32.7543 51.5764 32.5824 51.5052 32.4557 51.3785C32.329 51.2517 32.2578 51.0799 32.2578 50.9007V47.2973C32.2578 47.1181 32.329 46.9462 32.4557 46.8195C32.5824 46.6928 32.7543 46.6216 32.9335 46.6216H39.4652C39.6444 46.6216 39.8163 46.6928 39.943 46.8195C40.0697 46.9462 40.1409 47.1181 40.1409 47.2973V50.9007C40.1409 51.0799 40.0697 51.2517 39.943 51.3785C39.8163 51.5052 39.6444 51.5764 39.4652 51.5764ZM33.6092 50.225H38.7896V47.973H33.6092V50.225Z" fill="white"/>
<path d="M39.4652 60.1351H32.9335C32.7543 60.1351 32.5824 60.064 32.4557 59.9372C32.329 59.8105 32.2578 59.6387 32.2578 59.4595V55.8561C32.2578 55.6769 32.329 55.505 32.4557 55.3783C32.5824 55.2516 32.7543 55.1804 32.9335 55.1804H39.4652C39.6444 55.1804 39.8163 55.2516 39.943 55.3783C40.0697 55.505 40.1409 55.6769 40.1409 55.8561V59.4595C40.1409 59.6387 40.0697 59.8105 39.943 59.9372C39.8163 60.064 39.6444 60.1351 39.4652 60.1351ZM33.6092 58.7838H38.7896V56.5318H33.6092V58.7838Z" fill="white"/>
<path d="M39.4652 68.6939H32.9335C32.7543 68.6939 32.5824 68.6227 32.4557 68.496C32.329 68.3693 32.2578 68.1975 32.2578 68.0183V64.4142C32.2578 64.235 32.329 64.0631 32.4557 63.9364C32.5824 63.8097 32.7543 63.7385 32.9335 63.7385H39.4652C39.6444 63.7385 39.8163 63.8097 39.943 63.9364C40.0697 64.0631 40.1409 64.235 40.1409 64.4142V68.0183C40.1409 68.1975 40.0697 68.3693 39.943 68.496C39.8163 68.6227 39.6444 68.6939 39.4652 68.6939ZM33.6092 67.3426H38.7896V65.0899H33.6092V67.3426Z" fill="white"/>
<path d="M57.9606 42.2716H53.9491C53.7699 42.2716 53.5981 42.2004 53.4713 42.0737C53.3446 41.947 53.2734 41.7751 53.2734 41.5959V37.5845C53.2734 37.4053 53.3446 37.2334 53.4713 37.1067C53.5981 36.98 53.7699 36.9088 53.9491 36.9088H57.9606C58.1398 36.9088 58.3117 36.98 58.4384 37.1067C58.5651 37.2334 58.6363 37.4053 58.6363 37.5845V41.5959C58.6363 41.7751 58.5651 41.947 58.4384 42.0737C58.3117 42.2004 58.1398 42.2716 57.9606 42.2716ZM54.6248 40.9203H57.2849V38.2601H54.6248V40.9203Z" fill="white"/>
<path d="M47.9528 42.2716H43.9413C43.7621 42.2716 43.5902 42.2004 43.4635 42.0737C43.3368 41.947 43.2656 41.7751 43.2656 41.5959V37.5845C43.2656 37.4053 43.3368 37.2334 43.4635 37.1067C43.5902 36.98 43.7621 36.9088 43.9413 36.9088H47.9528C48.132 36.9088 48.3038 36.98 48.4306 37.1067C48.5573 37.2334 48.6285 37.4053 48.6285 37.5845V41.5959C48.6285 41.7751 48.5573 41.947 48.4306 42.0737C48.3038 42.2004 48.132 42.2716 47.9528 42.2716ZM44.617 40.9203H47.2771V38.2601H44.617V40.9203Z" fill="white"/>
<path d="M57.9606 50.6547H53.9491C53.7699 50.6547 53.5981 50.5835 53.4713 50.4568C53.3446 50.3301 53.2734 50.1583 53.2734 49.9791V45.9669C53.2734 45.7877 53.3446 45.6158 53.4713 45.4891C53.5981 45.3624 53.7699 45.2912 53.9491 45.2912H57.9606C58.1398 45.2912 58.3117 45.3624 58.4384 45.4891C58.5651 45.6158 58.6363 45.7877 58.6363 45.9669V49.9791C58.6363 50.1583 58.5651 50.3301 58.4384 50.4568C58.3117 50.5835 58.1398 50.6547 57.9606 50.6547ZM54.6248 49.3034H57.2849V46.6426H54.6248V49.3034Z" fill="white"/>
<path d="M47.9528 50.6547H43.9413C43.7621 50.6547 43.5902 50.5835 43.4635 50.4568C43.3368 50.3301 43.2656 50.1583 43.2656 49.9791V45.9669C43.2656 45.7877 43.3368 45.6158 43.4635 45.4891C43.5902 45.3624 43.7621 45.2912 43.9413 45.2912H47.9528C48.132 45.2912 48.3038 45.3624 48.4306 45.4891C48.5573 45.6158 48.6285 45.7877 48.6285 45.9669V49.9791C48.6285 50.1583 48.5573 50.3301 48.4306 50.4568C48.3038 50.5835 48.132 50.6547 47.9528 50.6547ZM44.617 49.3034H47.2771V46.6426H44.617V49.3034Z" fill="white"/>
<path d="M57.9606 59.0372H53.9491C53.7699 59.0372 53.5981 58.966 53.4713 58.8393C53.3446 58.7125 53.2734 58.5407 53.2734 58.3615V54.35C53.2734 54.1708 53.3446 53.9989 53.4713 53.8722C53.5981 53.7455 53.7699 53.6743 53.9491 53.6743H57.9606C58.1398 53.6743 58.3117 53.7455 58.4384 53.8722C58.5651 53.9989 58.6363 54.1708 58.6363 54.35V58.3615C58.6363 58.5407 58.5651 58.7125 58.4384 58.8393C58.3117 58.966 58.1398 59.0372 57.9606 59.0372ZM54.6248 57.6858H57.2849V55.0257H54.6248V57.6858Z" fill="white"/>
<path d="M47.9528 59.0372H43.9413C43.7621 59.0372 43.5902 58.966 43.4635 58.8393C43.3368 58.7125 43.2656 58.5407 43.2656 58.3615V54.35C43.2656 54.1708 43.3368 53.9989 43.4635 53.8722C43.5902 53.7455 43.7621 53.6743 43.9413 53.6743H47.9528C48.132 53.6743 48.3038 53.7455 48.4306 53.8722C48.5573 53.9989 48.6285 54.1708 48.6285 54.35V58.3615C48.6285 58.5407 48.5573 58.7125 48.4306 58.8393C48.3038 58.966 48.132 59.0372 47.9528 59.0372ZM44.617 57.6858H47.2771V55.0257H44.617V57.6858Z" fill="white"/>
<path d="M57.9606 67.4196H53.9491C53.7699 67.4196 53.5981 67.3484 53.4713 67.2217C53.3446 67.095 53.2734 66.9231 53.2734 66.7439V62.7324C53.2734 62.5532 53.3446 62.3814 53.4713 62.2547C53.5981 62.1279 53.7699 62.0568 53.9491 62.0568H57.9606C58.1398 62.0568 58.3117 62.1279 58.4384 62.2547C58.5651 62.3814 58.6363 62.5532 58.6363 62.7324V66.7439C58.6363 66.9231 58.5651 67.095 58.4384 67.2217C58.3117 67.3484 58.1398 67.4196 57.9606 67.4196ZM54.6248 66.0682H57.2849V63.4081H54.6248V66.0682Z" fill="white"/>
<path d="M47.9528 67.4196H43.9413C43.7621 67.4196 43.5902 67.3484 43.4635 67.2217C43.3368 67.095 43.2656 66.9231 43.2656 66.7439V62.7324C43.2656 62.5532 43.3368 62.3814 43.4635 62.2547C43.5902 62.1279 43.7621 62.0568 43.9413 62.0568H47.9528C48.132 62.0568 48.3038 62.1279 48.4306 62.2547C48.5573 62.3814 48.6285 62.5532 48.6285 62.7324V66.7439C48.6285 66.9231 48.5573 67.095 48.4306 67.2217C48.3038 67.3484 48.132 67.4196 47.9528 67.4196ZM44.617 66.0682H47.2771V63.4081H44.617V66.0682Z" fill="white"/>
<path d="M70.9113 48.8737H65.4491C65.2699 48.8737 65.0981 48.8025 64.9713 48.6758C64.8446 48.549 64.7734 48.3772 64.7734 48.198V45.0453C64.7734 44.8661 64.8446 44.6942 64.9713 44.5675C65.0981 44.4408 65.2699 44.3696 65.4491 44.3696H70.9113C71.0905 44.3696 71.2623 44.4408 71.3891 44.5675C71.5158 44.6942 71.587 44.8661 71.587 45.0453V48.198C71.587 48.3772 71.5158 48.549 71.3891 48.6758C71.2623 48.8025 71.0905 48.8737 70.9113 48.8737ZM66.1248 47.5223H70.2356V45.7209H66.1248V47.5223Z" fill="white"/>
<path d="M70.9113 55.6304H65.4491C65.2699 55.6304 65.0981 55.5592 64.9713 55.4325C64.8446 55.3058 64.7734 55.1339 64.7734 54.9547V51.802C64.7734 51.6228 64.8446 51.451 64.9713 51.3242C65.0981 51.1975 65.2699 51.1263 65.4491 51.1263H70.9113C71.0905 51.1263 71.2623 51.1975 71.3891 51.3242C71.5158 51.451 71.587 51.6228 71.587 51.802V54.9547C71.587 55.1339 71.5158 55.3058 71.3891 55.4325C71.2623 55.5592 71.0905 55.6304 70.9113 55.6304ZM66.1248 54.279H70.2356V52.4777H66.1248V54.279Z" fill="white"/>
<path d="M70.9113 62.3872H65.4491C65.2699 62.3872 65.0981 62.316 64.9713 62.1893C64.8446 62.0626 64.7734 61.8907 64.7734 61.7115V58.5588C64.7734 58.3796 64.8446 58.2077 64.9713 58.081C65.0981 57.9543 65.2699 57.8831 65.4491 57.8831H70.9113C71.0905 57.8831 71.2623 57.9543 71.3891 58.081C71.5158 58.2077 71.587 58.3796 71.587 58.5588V61.7115C71.587 61.8907 71.5158 62.0626 71.3891 62.1893C71.2623 62.316 71.0905 62.3872 70.9113 62.3872ZM66.1248 61.0358H70.2356V59.2345H66.1248V61.0358Z" fill="white"/>
<path d="M70.9113 69.1439H65.4491C65.2699 69.1439 65.0981 69.0727 64.9713 68.946C64.8446 68.8193 64.7734 68.6474 64.7734 68.4682V65.3155C64.7734 65.1363 64.8446 64.9645 64.9713 64.8378C65.0981 64.711 65.2699 64.6399 65.4491 64.6399H70.9113C71.0905 64.6399 71.2623 64.711 71.3891 64.8378C71.5158 64.9645 71.587 65.1363 71.587 65.3155V68.4682C71.587 68.6474 71.5158 68.8193 71.3891 68.946C71.2623 69.0727 71.0905 69.1439 70.9113 69.1439ZM66.1248 67.7926H70.2356V65.9912H66.1248V67.7926Z" fill="white"/>
</svg>
