<svg width="21" height="21" viewBox="0 0 21 21" fill="none" xmlns="http://www.w3.org/2000/svg">
<path d="M17.8964 13.1589L14.1124 11.4633L14.102 11.4584C13.9056 11.3744 13.6913 11.3407 13.4785 11.3603C13.2658 11.38 13.0613 11.4523 12.8835 11.5709C12.8626 11.5847 12.8425 11.5997 12.8233 11.6159L10.8682 13.2826C9.62966 12.6809 8.35093 11.4118 7.74931 10.1893L9.41841 8.20458C9.43447 8.1845 9.44974 8.16442 9.46419 8.14273C9.5802 7.96546 9.65059 7.76226 9.66909 7.55122C9.68758 7.34017 9.65362 7.12782 9.57022 6.93308V6.92344L7.8698 3.13303C7.75955 2.87862 7.56997 2.66669 7.32938 2.52888C7.08878 2.39106 6.81007 2.33476 6.53484 2.36836C5.44645 2.51158 4.44741 3.0461 3.72431 3.87207C3.00121 4.69805 2.60351 5.759 2.60548 6.85677C2.60548 13.2344 7.79429 18.4232 14.1719 18.4232C15.2697 18.4251 16.3306 18.0274 17.1566 17.3043C17.9826 16.5812 18.5171 15.5822 18.6603 14.4938C18.694 14.2187 18.6378 13.94 18.5001 13.6994C18.3624 13.4589 18.1507 13.2692 17.8964 13.1589ZM14.1719 17.138C11.446 17.135 8.83269 16.0509 6.90523 14.1234C4.97776 12.196 3.89361 9.58261 3.89063 6.85677C3.88761 6.07242 4.17019 5.31378 4.68561 4.72253C5.20103 4.13129 5.91403 3.74787 6.69147 3.64388C6.69115 3.64709 6.69115 3.65031 6.69147 3.65352L8.37824 7.42867L6.71798 9.41584C6.70112 9.43523 6.68582 9.45591 6.67219 9.47769C6.55132 9.66316 6.48041 9.87672 6.46634 10.0977C6.45227 10.3186 6.49551 10.5394 6.59187 10.7387C7.31959 12.2271 8.81921 13.7155 10.3236 14.4424C10.5244 14.5379 10.7465 14.5796 10.9683 14.5636C11.19 14.5475 11.4038 14.4742 11.5887 14.3508C11.6093 14.3369 11.6292 14.3219 11.6482 14.3059L13.6008 12.64L17.3759 14.3308H17.3848C17.2821 15.1093 16.8992 15.8237 16.3079 16.3404C15.7165 16.8571 14.9572 17.1407 14.1719 17.138Z" fill="white"/>
</svg>
