<svg width="21" height="22" viewBox="0 0 21 22" fill="none" xmlns="http://www.w3.org/2000/svg">
<path d="M14.5971 10.3671C14.4583 7.80793 13.06 6.34286 10.7125 6.32829C9.29709 6.31972 8.11389 6.91946 7.38906 8.0187L8.68108 8.90374C9.22427 8.08039 10.0819 7.90989 10.7031 7.91589C11.4767 7.92103 12.0593 8.1455 12.4372 8.58417C12.7113 8.90289 12.8955 9.34412 12.9872 9.90017C12.3018 9.78365 11.5598 9.74766 10.7682 9.79307C8.53542 9.92159 7.10119 11.2239 7.19715 13.0325C7.24598 13.9501 7.70264 14.7401 8.48402 15.2558C9.14373 15.6919 9.99536 15.9044 10.8787 15.8564C12.0465 15.7922 12.9624 15.3475 13.6015 14.5327C14.0864 13.9141 14.3932 13.1122 14.5285 12.1029C15.0854 12.4388 15.4967 12.88 15.7254 13.4112C16.1127 14.3143 16.135 15.7982 14.9244 17.0079C13.8637 18.0669 12.5888 18.5261 10.6619 18.5398C8.52429 18.5244 6.90756 17.8381 5.85716 16.5024C4.87187 15.2516 4.36381 13.4438 4.34496 11.1313C4.36381 8.81807 4.87273 7.01114 5.85716 5.75939C6.90756 4.42369 8.52429 3.73827 10.6619 3.72285C12.815 3.73913 14.4591 4.42712 15.5507 5.77053C16.0861 6.42853 16.4888 7.25617 16.7553 8.2209L18.2683 7.81821C17.9453 6.62987 17.4381 5.60603 16.7484 4.75697C15.3493 3.03486 13.2931 2.15325 10.6568 2.13525C8.02565 2.15325 6.00281 3.03915 4.64311 4.7664C3.43421 6.3043 2.80963 8.45565 2.78906 11.1373C2.80963 13.819 3.43421 15.9584 4.64311 17.4963C6.00281 19.2235 8.03593 20.1094 10.6662 20.1274C13.0061 20.1112 14.6545 19.4986 16.0125 18.1423C17.7903 16.3662 17.7363 14.1412 17.1511 12.7755C16.7013 11.7259 15.806 10.8855 14.5979 10.368M10.7956 14.2723C9.81715 14.3271 8.80102 13.8884 8.75047 12.9477C8.71363 12.2503 9.2474 11.4723 10.8556 11.3798C11.5824 11.331 12.3124 11.3812 13.0258 11.5289C12.8407 13.8439 11.7535 14.2191 10.7956 14.2723Z" fill="white"/>
</svg>
