<svg width="101" height="100" viewBox="0 0 101 100" fill="none" xmlns="http://www.w3.org/2000/svg">
<rect x="0.730469" width="100" height="100" rx="50" fill="#071420" fill-opacity="0.5"/>
<path d="M74.168 70.3125H71.8242V51.5625H72.6055C72.8127 51.5625 73.0114 51.4802 73.1579 51.3337C73.3044 51.1872 73.3867 50.9885 73.3867 50.7813V48.4375C73.3867 48.2303 73.3044 48.0316 73.1579 47.8851C73.0114 47.7386 72.8127 47.6563 72.6055 47.6563H71.8242V35.3252L73.0732 35.8721C73.1922 35.9242 73.3222 35.9458 73.4516 35.935C73.581 35.9242 73.7056 35.8814 73.8143 35.8103C73.9229 35.7393 74.0122 35.6423 74.0739 35.5281C74.1357 35.4139 74.168 35.2861 74.168 35.1563V32.0313C74.168 31.8794 74.1238 31.7308 74.0407 31.6037C73.9576 31.4765 73.8393 31.3764 73.7002 31.3154L61.2002 25.8467C61.1013 25.8037 60.9946 25.7815 60.8867 25.7815C60.7789 25.7815 60.6722 25.8037 60.5732 25.8467L48.0732 31.3154C47.9341 31.3764 47.8158 31.4765 47.7327 31.6037C47.6496 31.7308 47.6054 31.8794 47.6055 32.0313V35.1563C47.6054 35.2861 47.6378 35.4139 47.6995 35.5281C47.7613 35.6423 47.8505 35.7393 47.9592 35.8103C48.0678 35.8814 48.1925 35.9242 48.3219 35.935C48.4512 35.9458 48.5813 35.9242 48.7002 35.8721L49.9492 35.3252V39.8438H28.8555C28.6483 39.8438 28.4496 39.9261 28.303 40.0726C28.1565 40.2191 28.0742 40.4178 28.0742 40.625V42.9688C28.0742 43.176 28.1565 43.3747 28.303 43.5212C28.4496 43.6677 28.6483 43.75 28.8555 43.75H31.1992V47.6563H28.8555C28.6483 47.6563 28.4496 47.7386 28.303 47.8851C28.1565 48.0316 28.0742 48.2303 28.0742 48.4375V50.7813C28.0742 50.9885 28.1565 51.1872 28.303 51.3337C28.4496 51.4802 28.6483 51.5625 28.8555 51.5625H29.6367V70.3125H27.293C27.0858 70.3125 26.8871 70.3948 26.7405 70.5413C26.594 70.6878 26.5117 70.8866 26.5117 71.0938V73.4375C26.5117 73.6447 26.594 73.8434 26.7405 73.9899C26.8871 74.1364 27.0858 74.2188 27.293 74.2188H74.168C74.3752 74.2188 74.5739 74.1364 74.7204 73.9899C74.8669 73.8434 74.9492 73.6447 74.9492 73.4375V71.0938C74.9492 70.8866 74.8669 70.6878 74.7204 70.5413C74.5739 70.3948 74.3752 70.3125 74.168 70.3125ZM49.168 33.9619V32.542L60.8867 27.415L72.6055 32.542V33.9619L71.3496 33.4121C71.3481 33.4119 71.3468 33.4112 71.3457 33.4102L61.2002 28.9717C61.1013 28.9285 60.9946 28.9063 60.8867 28.9063C60.7788 28.9063 60.6721 28.9285 60.5732 28.9717L50.4277 33.4102C50.4267 33.4112 50.4253 33.4119 50.4238 33.4121L49.168 33.9619ZM70.2617 34.6416V47.6563H51.5117V34.6416L60.8867 30.54L70.2617 34.6416ZM29.6367 42.1875V41.4063H49.9492V42.1875H29.6367ZM49.9492 43.75V47.6563H46.8242V43.75H49.9492ZM45.2617 43.75V47.6563H42.1367V43.75H45.2617ZM40.5742 43.75V47.6563H37.4492V43.75H40.5742ZM35.8867 43.75V47.6563H32.7617V43.75H35.8867ZM29.6367 49.2188H71.8242V50H29.6367V49.2188ZM60.1055 59.375H53.0742C52.867 59.375 52.6683 59.4573 52.5218 59.6038C52.3753 59.7503 52.293 59.9491 52.293 60.1563V70.3125H51.5117V51.5625H70.2617V70.3125H60.8867V60.1563C60.8867 59.9491 60.8044 59.7503 60.6579 59.6038C60.5114 59.4573 60.3127 59.375 60.1055 59.375ZM59.3242 60.9375V70.3125H53.8555V60.9375H59.3242ZM48.3867 55.4688H32.7617C32.5545 55.4688 32.3558 55.5511 32.2093 55.6976C32.0628 55.8441 31.9805 56.0428 31.9805 56.25V58.5938C31.9805 58.801 32.0628 58.9997 32.2093 59.1462C32.3558 59.2927 32.5545 59.375 32.7617 59.375V70.3125H31.1992V51.5625H49.9492V70.3125H48.3867V59.375C48.5939 59.375 48.7926 59.2927 48.9391 59.1462C49.0857 58.9997 49.168 58.801 49.168 58.5938V56.25C49.168 56.0428 49.0857 55.8441 48.9391 55.6976C48.7926 55.5511 48.5939 55.4688 48.3867 55.4688ZM33.543 57.8125V57.0313H47.6055V57.8125H33.543ZM46.8242 59.375V70.3125H34.3242V59.375H46.8242ZM73.3867 72.6563H28.0742V71.875H73.3867V72.6563Z" fill="white"/>
<path d="M62.4492 66.4062H68.6992C68.9064 66.4062 69.1051 66.3239 69.2516 66.1774C69.3982 66.0309 69.4805 65.8322 69.4805 65.625V60.1562C69.4805 59.949 69.3982 59.7503 69.2516 59.6038C69.1051 59.4573 68.9064 59.375 68.6992 59.375H62.4492C62.242 59.375 62.0433 59.4573 61.8968 59.6038C61.7503 59.7503 61.668 59.949 61.668 60.1562V65.625C61.668 65.8322 61.7503 66.0309 61.8968 66.1774C62.0433 66.3239 62.242 66.4062 62.4492 66.4062ZM63.2305 60.9375H67.918V64.8438H63.2305V60.9375Z" fill="white"/>
<path d="M62.4492 42.9688H68.6992C68.9064 42.9688 69.1051 42.8864 69.2516 42.7399C69.3982 42.5934 69.4805 42.3947 69.4805 42.1875V36.7188C69.4805 36.5115 69.3982 36.3128 69.2516 36.1663C69.1051 36.0198 68.9064 35.9375 68.6992 35.9375H62.4492C62.242 35.9375 62.0433 36.0198 61.8968 36.1663C61.7503 36.3128 61.668 36.5115 61.668 36.7188V42.1875C61.668 42.3947 61.7503 42.5934 61.8968 42.7399C62.0433 42.8864 62.242 42.9688 62.4492 42.9688ZM63.2305 37.5H67.918V41.4062H63.2305V37.5Z" fill="white"/>
<path d="M53.0742 42.9688H59.3242C59.5314 42.9688 59.7301 42.8864 59.8766 42.7399C60.0232 42.5934 60.1055 42.3947 60.1055 42.1875V36.7188C60.1055 36.5115 60.0232 36.3128 59.8766 36.1663C59.7301 36.0198 59.5314 35.9375 59.3242 35.9375H53.0742C52.867 35.9375 52.6683 36.0198 52.5218 36.1663C52.3753 36.3128 52.293 36.5115 52.293 36.7188V42.1875C52.293 42.3947 52.3753 42.5934 52.5218 42.7399C52.6683 42.8864 52.867 42.9688 53.0742 42.9688ZM53.8555 37.5H58.543V41.4062H53.8555V37.5Z" fill="white"/>
<path d="M57.7617 67.1875C57.9689 67.1875 58.1676 67.1052 58.3141 66.9587C58.4607 66.8122 58.543 66.6135 58.543 66.4062V64.8438C58.543 64.6365 58.4607 64.4378 58.3141 64.2913C58.1676 64.1448 57.9689 64.0625 57.7617 64.0625C57.5545 64.0625 57.3558 64.1448 57.2093 64.2913C57.0628 64.4378 56.9805 64.6365 56.9805 64.8438V66.4062C56.9805 66.6135 57.0628 66.8122 57.2093 66.9587C57.3558 67.1052 57.5545 67.1875 57.7617 67.1875Z" fill="white"/>
</svg>
