<svg width="29" height="29" viewBox="0 0 29 29" fill="none" xmlns="http://www.w3.org/2000/svg">
<g clip-path="url(#clip0_723_1927)">
<path d="M17.8931 16.8391C18.0588 16.8392 18.2176 16.905 18.3348 17.0222C18.452 17.1393 18.5178 17.2982 18.5179 17.4639L18.5212 18.5654C18.5208 19.7265 18.0592 20.8398 17.238 21.6605C16.4168 22.4813 15.3031 22.9421 14.1421 22.9418C12.981 22.9414 11.8677 22.4798 11.047 21.6586C10.2263 20.8373 9.76539 19.7237 9.76576 18.5627L9.76576 15.8978C9.76531 14.7818 10.1914 13.7078 10.9567 12.8956C11.7221 12.0834 12.7689 11.5944 13.883 11.5286C13.9651 11.5237 14.0474 11.535 14.1252 11.5618C14.2029 11.5887 14.2746 11.6306 14.3362 11.6852C14.3977 11.7398 14.448 11.806 14.4839 11.88C14.5199 11.9539 14.541 12.0343 14.5459 12.1164C14.5508 12.1985 14.5396 12.2808 14.5127 12.3586C14.4858 12.4363 14.4439 12.508 14.3893 12.5696C14.3347 12.6311 14.2686 12.6814 14.1946 12.7173C14.1206 12.7533 14.0403 12.7744 13.9581 12.7793C13.1626 12.8265 12.4152 13.1758 11.8687 13.7557C11.3222 14.3357 11.018 15.1025 11.0181 15.8994L11.0165 18.5627C11.0165 19.3916 11.3458 20.1867 11.9319 20.7728C12.5181 21.359 13.3131 21.6883 14.1421 21.6883C14.9711 21.6883 15.7661 21.359 16.3522 20.7728C16.9384 20.1867 17.2677 19.3916 17.2677 18.5627L17.2677 17.4644C17.2677 17.3823 17.2838 17.301 17.3152 17.2251C17.3466 17.1492 17.3927 17.0802 17.4508 17.0222C17.5089 16.9641 17.5778 16.918 17.6537 16.8866C17.7296 16.8552 17.8109 16.8391 17.8931 16.8391ZM14.141 5.3442C12.9807 5.3455 11.8683 5.80699 11.0479 6.62743C10.2275 7.44787 9.76596 8.56025 9.76465 9.72053L9.76521 10.8193C9.76528 10.9851 9.83121 11.144 9.94848 11.2612C10.0658 11.3784 10.2248 11.4442 10.3906 11.4441C10.5563 11.444 10.7153 11.3781 10.8325 11.2608C10.9496 11.1435 11.0154 10.9845 11.0153 10.8188L11.0153 9.72053C11.0153 8.89156 11.3447 8.09654 11.9308 7.51037C12.517 6.9242 13.312 6.59489 14.141 6.59489C14.97 6.59489 15.765 6.9242 16.3511 7.51037C16.9373 8.09654 17.2666 8.89156 17.2666 9.72053L17.2677 12.3865C17.2674 13.1834 16.9627 13.9501 16.4159 14.5297C15.8691 15.1094 15.1215 15.4582 14.326 15.505C14.1602 15.515 14.0051 15.5904 13.8949 15.7147C13.7846 15.839 13.7283 16.002 13.7383 16.1679C13.7482 16.3338 13.8237 16.4889 13.948 16.5991C14.0723 16.7093 14.2353 16.7656 14.4012 16.7557C15.5152 16.6902 16.5622 16.2015 17.3278 15.3895C18.0933 14.5775 18.5197 13.5036 18.5195 12.3876L18.5195 9.72274C18.5185 8.56208 18.057 7.44925 17.2363 6.62854C16.4156 5.80783 15.3027 5.34631 14.1421 5.3453L14.141 5.3442Z" fill="#035FCE"/>
</g>
<defs>
<clipPath id="clip0_723_1927">
<rect width="20" height="20" fill="white" transform="translate(0 14.1422) rotate(-45)"/>
</clipPath>
</defs>
</svg>
