<svg width="16" height="16" viewBox="0 0 16 16" fill="none" xmlns="http://www.w3.org/2000/svg">
<g clip-path="url(#clip0_750_1877)">
<path fill-rule="evenodd" clip-rule="evenodd" d="M1.13296 0.360352H0.632973V5.86039H1.63291V2.06748L5.77935 6.21397L6.48649 5.50682L2.34005 1.36033H6.13292V0.360384L1.13296 0.360352ZM15.1328 0.360352H15.6328V5.86039H14.6329V2.06748L10.4864 6.21397L9.77929 5.50682L13.9257 1.36033H10.1329V0.360384L15.1328 0.360352ZM15.6328 15.3604H10.1328V14.3605H13.9257L9.77925 10.2139L10.4864 9.50676L14.6328 13.6533V9.86034H15.6328V15.3604ZM1.1328 15.3604H0.632812V9.86031H1.63275V13.6533L5.77919 9.50673L6.48633 10.2139L2.33989 14.3604H6.13276V15.3604H1.1328Z" fill="#7A7A7A"/>
</g>
<defs>
<clipPath id="clip0_750_1877">
<rect width="15" height="15" fill="white" transform="translate(0.632812 0.360352)"/>
</clipPath>
</defs>
</svg>
