<svg width="18" height="17" viewBox="0 0 18 17" fill="none" xmlns="http://www.w3.org/2000/svg">
<g clip-path="url(#clip0_750_1873)">
<path d="M16.6845 7.13194H2.84688V1.99219C2.84604 1.73219 2.94585 1.48234 3.12457 1.2966C3.30329 1.11103 3.54649 1.0046 3.80159 1.00045C4.05671 0.996311 4.30315 1.09474 4.48759 1.27431C4.21145 1.66745 4.08095 2.1476 4.11921 2.62947C4.15761 3.11133 4.3624 3.56376 4.69726 3.90632L4.71941 3.92732C4.89603 4.08518 5.16251 4.07632 5.32887 3.90718L7.53295 1.66089C7.69933 1.49146 7.70788 1.21932 7.55229 1.03932L7.53211 1.01718C7.19289 0.672889 6.74405 0.463741 6.26676 0.427315C5.78946 0.391029 5.31511 0.529888 4.9295 0.818886C4.62672 0.520313 4.22064 0.355452 3.79943 0.360463C3.37808 0.36532 2.97578 0.539462 2.67988 0.845035C2.38384 1.15061 2.21816 1.56289 2.21884 1.99217V7.13193H0.940467C0.773942 7.13207 0.614426 7.19964 0.496687 7.31964C0.378947 7.43964 0.31278 7.60221 0.3125 7.77192V8.5032C0.31278 8.67277 0.378943 8.83549 0.496687 8.95548C0.61443 9.07548 0.77395 9.14291 0.940467 9.14319H0.962894V11.3377C0.963455 11.9783 1.13545 12.6062 1.46036 13.1546C1.78528 13.703 2.25078 14.1505 2.80659 14.4493C2.80631 14.456 2.8035 14.4624 2.8035 14.4691V15.7204C2.80378 15.8901 2.86995 16.0527 2.98769 16.1727C3.10543 16.2927 3.26509 16.3601 3.43147 16.3604H4.26983C4.43636 16.3601 4.59587 16.2927 4.71361 16.1727C4.83135 16.0527 4.89752 15.8901 4.8978 15.7204V14.8575H12.685V15.7204C12.6852 15.8901 12.7515 16.0527 12.8691 16.1727C12.9868 16.2927 13.1465 16.3601 13.313 16.3604H14.1514C14.3179 16.3601 14.4773 16.2927 14.595 16.1727C14.7127 16.0527 14.779 15.8901 14.7792 15.7204V14.4691C15.3453 14.1744 15.8207 13.7256 16.1529 13.1731C16.4851 12.6207 16.6614 11.9855 16.6622 11.3375V9.14321H16.6847C16.8513 9.14293 17.0107 9.0755 17.1283 8.9555C17.2461 8.8355 17.3124 8.67278 17.3125 8.50322V7.77193C17.3124 7.60222 17.2461 7.43965 17.1283 7.31966C17.0107 7.19966 16.8511 7.13208 16.6845 7.13194ZM6.11593 1.05998C6.41815 1.05941 6.71208 1.1607 6.95207 1.34812L5.02218 3.31497C4.81305 3.0364 4.71395 2.6881 4.74436 2.33884C4.77478 1.98956 4.93233 1.66454 5.18631 1.42785C5.44016 1.19099 5.7718 1.05987 6.11593 1.05998ZM3.43162 15.7204L3.43582 14.7109C3.7072 14.792 3.9874 14.8389 4.26999 14.85V15.7205L3.43162 15.7204ZM14.1513 15.7204H13.3131V14.8523C13.5967 14.8439 13.8783 14.7999 14.1513 14.7209V15.7204ZM16.0343 11.3377C16.0335 12.1013 15.7355 12.8334 15.2057 13.3733C14.676 13.9133 13.9577 14.2168 13.2085 14.2177H13.0051C13.003 14.2177 13.0012 14.2164 12.9991 14.2164C12.997 14.2164 12.9952 14.2176 12.9931 14.2177H4.59007C4.58796 14.2177 4.58614 14.2164 4.58404 14.2164C4.58194 14.2164 4.58011 14.2176 4.57801 14.2177H4.41681C3.66759 14.2169 2.94922 13.9133 2.4195 13.3733C1.88963 12.8334 1.59165 12.1013 1.59093 11.3377V9.14337H16.0343V11.3377ZM16.6622 8.50323L0.940644 8.50337V7.77208H16.6848L16.6851 8.50337L16.6622 8.50323Z" fill="#7A7A7A"/>
</g>
<defs>
<clipPath id="clip0_750_1873">
<rect width="17" height="16" fill="white" transform="translate(0.3125 0.360352)"/>
</clipPath>
</defs>
</svg>
