<svg width="20" height="20" viewBox="0 0 20 20" fill="none" xmlns="http://www.w3.org/2000/svg">
<path d="M6.8375 4.03518C7.03734 3.94534 7.26453 3.93781 7.46988 4.01424C7.67523 4.09067 7.84222 4.2449 7.93469 4.44354C8.02716 4.64218 8.03768 4.86925 7.96397 5.07559C7.89025 5.28193 7.73824 5.45093 7.54083 5.54602C6.33572 6.1052 5.3577 7.05917 4.76867 8.24998C4.17964 9.44079 4.01493 10.7971 4.3018 12.0942C4.58867 13.3914 5.30992 14.5518 6.34616 15.3832C7.38239 16.2145 8.67147 16.6671 10 16.666C11.3268 16.6661 12.614 16.2137 13.649 15.3835C14.684 14.5534 15.405 13.3951 15.693 12.0999C15.9809 10.8047 15.8186 9.45005 15.2328 8.25956C14.647 7.06908 13.6727 6.11394 12.4708 5.55185C12.2745 5.4558 12.1238 5.28647 12.0512 5.08037C11.9785 4.87426 11.9897 4.64785 12.0824 4.44994C12.1751 4.25202 12.3418 4.09843 12.5466 4.02225C12.7515 3.94608 12.978 3.95341 13.1775 4.04268C14.4694 4.6465 15.5624 5.60629 16.328 6.80942C17.0936 8.01255 17.5002 9.4091 17.5 10.8352C17.5 14.976 14.1417 18.3327 10 18.3327C5.85833 18.3327 2.5 14.976 2.5 10.8352C2.49972 9.4062 2.90785 8.0069 3.67633 6.80215C4.4448 5.59739 5.5416 4.63737 6.8375 4.03518ZM10 1.66602C10.2041 1.66604 10.4011 1.74098 10.5536 1.87661C10.7062 2.01224 10.8036 2.19914 10.8275 2.40185L10.8333 2.49935V8.33268C10.8331 8.54508 10.7518 8.74938 10.606 8.90382C10.4602 9.05827 10.2609 9.15121 10.0488 9.16366C9.8368 9.17611 9.62802 9.10712 9.46514 8.9708C9.30226 8.83447 9.19759 8.6411 9.1725 8.43018L9.16667 8.33268V2.49935C9.16667 2.27834 9.25446 2.06637 9.41074 1.91009C9.56702 1.75381 9.77899 1.66602 10 1.66602Z" fill="#282D3A"/>
</svg>
