<svg width="20" height="20" viewBox="0 0 20 20" fill="none" xmlns="http://www.w3.org/2000/svg">
<path d="M13.3337 8.33333C13.3337 9.21739 12.9825 10.0652 12.3573 10.6904C11.7322 11.3155 10.8844 11.6667 10.0003 11.6667C9.11627 11.6667 8.26842 11.3155 7.6433 10.6904C7.01818 10.0652 6.66699 9.21739 6.66699 8.33333C6.66699 7.44928 7.01818 6.60143 7.6433 5.97631C8.26842 5.35119 9.11627 5 10.0003 5C10.8844 5 11.7322 5.35119 12.3573 5.97631C12.9825 6.60143 13.3337 7.44928 13.3337 8.33333Z" fill="#282D3A"/>
<path fill-rule="evenodd" clip-rule="evenodd" d="M9.66033 18.326C5.21574 18.1477 1.66699 14.4877 1.66699 9.99935C1.66699 5.39685 5.39783 1.66602 10.0003 1.66602C14.6028 1.66602 18.3337 5.39685 18.3337 9.99935C18.3337 14.6018 14.6028 18.3327 10.0003 18.3327C9.96227 18.3329 9.92421 18.3329 9.88616 18.3327C9.81074 18.3327 9.73533 18.3302 9.66033 18.326ZM4.65283 15.2577C4.59052 15.0788 4.56931 14.8881 4.59078 14.6998C4.61224 14.5116 4.67583 14.3306 4.77682 14.1703C4.8778 14.01 5.0136 13.8745 5.17413 13.7738C5.33465 13.6732 5.51578 13.61 5.70408 13.5889C8.95241 13.2293 11.0682 13.2618 14.3007 13.5964C14.4893 13.6161 14.6709 13.6785 14.8316 13.7789C14.9924 13.8793 15.1282 14.0151 15.2286 14.1759C15.3289 14.3367 15.3913 14.5183 15.4109 14.7068C15.4305 14.8954 15.4068 15.0859 15.3416 15.2639C16.727 13.8622 17.5028 11.9702 17.5003 9.99935C17.5003 5.85727 14.1424 2.49935 10.0003 2.49935C5.85824 2.49935 2.50033 5.85727 2.50033 9.99935C2.50033 12.0477 3.32158 13.9043 4.65283 15.2577Z" fill="#282D3A"/>
</svg>
