<svg width="20" height="20" viewBox="0 0 20 20" fill="none" xmlns="http://www.w3.org/2000/svg">
<path d="M15.8385 3.33317H14.1719V2.49984C14.1719 2.27882 14.0841 2.06686 13.9278 1.91058C13.7715 1.7543 13.5596 1.6665 13.3385 1.6665C13.1175 1.6665 12.9056 1.7543 12.7493 1.91058C12.593 2.06686 12.5052 2.27882 12.5052 2.49984V3.33317H7.50521V2.49984C7.50521 2.27882 7.41741 2.06686 7.26113 1.91058C7.10485 1.7543 6.89289 1.6665 6.67188 1.6665C6.45086 1.6665 6.2389 1.7543 6.08262 1.91058C5.92634 2.06686 5.83854 2.27882 5.83854 2.49984V3.33317H4.17188C3.50883 3.33317 2.87295 3.59656 2.40411 4.0654C1.93527 4.53424 1.67188 5.17013 1.67188 5.83317V15.8332C1.67188 16.4962 1.93527 17.1321 2.40411 17.6009C2.87295 18.0698 3.50883 18.3332 4.17188 18.3332H15.8385C16.5016 18.3332 17.1375 18.0698 17.6063 17.6009C18.0751 17.1321 18.3385 16.4962 18.3385 15.8332V5.83317C18.3385 5.17013 18.0751 4.53424 17.6063 4.0654C17.1375 3.59656 16.5016 3.33317 15.8385 3.33317ZM16.6719 15.8332C16.6719 16.0542 16.5841 16.2661 16.4278 16.4224C16.2715 16.5787 16.0596 16.6665 15.8385 16.6665H4.17188C3.95086 16.6665 3.7389 16.5787 3.58262 16.4224C3.42634 16.2661 3.33854 16.0542 3.33854 15.8332V9.99984H16.6719V15.8332ZM16.6719 8.33317H3.33854V5.83317C3.33854 5.61216 3.42634 5.4002 3.58262 5.24392C3.7389 5.08763 3.95086 4.99984 4.17188 4.99984H5.83854V5.83317C5.83854 6.05418 5.92634 6.26615 6.08262 6.42243C6.2389 6.57871 6.45086 6.6665 6.67188 6.6665C6.89289 6.6665 7.10485 6.57871 7.26113 6.42243C7.41741 6.26615 7.50521 6.05418 7.50521 5.83317V4.99984H12.5052V5.83317C12.5052 6.05418 12.593 6.26615 12.7493 6.42243C12.9056 6.57871 13.1175 6.6665 13.3385 6.6665C13.5596 6.6665 13.7715 6.57871 13.9278 6.42243C14.0841 6.26615 14.1719 6.05418 14.1719 5.83317V4.99984H15.8385C16.0596 4.99984 16.2715 5.08763 16.4278 5.24392C16.5841 5.4002 16.6719 5.61216 16.6719 5.83317V8.33317Z" fill="#63666D"/>
</svg>
