<svg width="85" height="83" viewBox="0 0 85 83" fill="none" xmlns="http://www.w3.org/2000/svg">
<g clip-path="url(#clip0_1255_3438)">
<rect x="2" y="57" width="81" height="37" rx="18.5" fill="#2B3E56"/>
<path d="M47 62.5H45.2675L44.4156 61.2225C44.37 61.1541 44.3082 61.098 44.2357 61.0592C44.1632 61.0204 44.0822 61 44 61H40C39.9178 61 39.8368 61.0204 39.7643 61.0592C39.6918 61.098 39.63 61.1541 39.5844 61.2225L38.7319 62.5H37C36.6022 62.5 36.2206 62.658 35.9393 62.9393C35.658 63.2206 35.5 63.6022 35.5 64V71C35.5 71.3978 35.658 71.7794 35.9393 72.0607C36.2206 72.342 36.6022 72.5 37 72.5H47C47.3978 72.5 47.7794 72.342 48.0607 72.0607C48.342 71.7794 48.5 71.3978 48.5 71V64C48.5 63.6022 48.342 63.2206 48.0607 62.9393C47.7794 62.658 47.3978 62.5 47 62.5ZM47.5 71C47.5 71.1326 47.4473 71.2598 47.3536 71.3536C47.2598 71.4473 47.1326 71.5 47 71.5H37C36.8674 71.5 36.7402 71.4473 36.6464 71.3536C36.5527 71.2598 36.5 71.1326 36.5 71V64C36.5 63.8674 36.5527 63.7402 36.6464 63.6464C36.7402 63.5527 36.8674 63.5 37 63.5H39C39.0823 63.5001 39.1634 63.4798 39.236 63.441C39.3086 63.4021 39.3706 63.346 39.4163 63.2775L40.2675 62H43.7319L44.5837 63.2775C44.6294 63.346 44.6914 63.4021 44.764 63.441C44.8366 63.4798 44.9177 63.5001 45 63.5H47C47.1326 63.5 47.2598 63.5527 47.3536 63.6464C47.4473 63.7402 47.5 63.8674 47.5 64V71ZM42 64.5C41.4561 64.5 40.9244 64.6613 40.4722 64.9635C40.0199 65.2656 39.6675 65.6951 39.4593 66.1976C39.2512 66.7001 39.1967 67.2531 39.3028 67.7865C39.409 68.3199 39.6709 68.8099 40.0555 69.1945C40.4401 69.5791 40.9301 69.8411 41.4635 69.9472C41.9969 70.0533 42.5499 69.9988 43.0524 69.7907C43.5549 69.5825 43.9844 69.2301 44.2865 68.7778C44.5887 68.3256 44.75 67.7939 44.75 67.25C44.7492 66.5209 44.4592 65.8219 43.9436 65.3064C43.4281 64.7908 42.7291 64.5008 42 64.5ZM42 69C41.6539 69 41.3155 68.8974 41.0278 68.7051C40.74 68.5128 40.5157 68.2395 40.3832 67.9197C40.2508 67.5999 40.2161 67.2481 40.2836 66.9086C40.3511 66.5691 40.5178 66.2573 40.7626 66.0126C41.0073 65.7678 41.3191 65.6011 41.6586 65.5336C41.9981 65.4661 42.3499 65.5008 42.6697 65.6332C42.9895 65.7657 43.2628 65.99 43.4551 66.2778C43.6474 66.5655 43.75 66.9039 43.75 67.25C43.75 67.7141 43.5656 68.1592 43.2374 68.4874C42.9092 68.8156 42.4641 69 42 69Z" fill="white"/>
</g>
<defs>
<clipPath id="clip0_1255_3438">
<rect width="85" height="83" rx="41.5" fill="white"/>
</clipPath>
</defs>
</svg>
