<svg width="32" height="32" viewBox="0 0 32 32" fill="none" xmlns="http://www.w3.org/2000/svg">
<path d="M6.67188 4H14.6719C15.7327 4 16.7502 4.42143 17.5003 5.17157C18.2504 5.92172 18.6719 6.93913 18.6719 8V13.3333H17.3385V8C17.3385 7.29276 17.0576 6.61448 16.5575 6.11438C16.0574 5.61428 15.3791 5.33333 14.6719 5.33333H6.67188C5.96463 5.33333 5.28635 5.61428 4.78626 6.11438C4.28616 6.61448 4.00521 7.29276 4.00521 8V25.3333C4.00521 26.0406 4.28616 26.7189 4.78626 27.219C5.28635 27.719 5.96463 28 6.67188 28H14.6719C15.3791 28 16.0574 27.719 16.5575 27.219C17.0576 26.7189 17.3385 26.0406 17.3385 25.3333V20H18.6719V25.3333C18.6719 26.3942 18.2504 27.4116 17.5003 28.1618C16.7502 28.9119 15.7327 29.3333 14.6719 29.3333H6.67188C5.61101 29.3333 4.59359 28.9119 3.84345 28.1618C3.0933 27.4116 2.67188 26.3942 2.67188 25.3333V8C2.67188 6.93913 3.0933 5.92172 3.84345 5.17157C4.59359 4.42143 5.61101 4 6.67188 4ZM10.6719 16H25.6719L21.3385 11.6667L22.2185 10.6667L28.2185 16.6667L22.2185 22.6667L21.3385 21.6667L25.6719 17.3333H10.6719V16Z" fill="#282D3A"/>
</svg>
