<svg width="16" height="16" viewBox="0 0 16 16" fill="none" xmlns="http://www.w3.org/2000/svg">
<g clip-path="url(#clip0_907_2725)">
<path d="M14.5698 2.14265H11.5698V0.999791C11.5698 0.921219 11.5055 0.856934 11.4269 0.856934H10.4269C10.3483 0.856934 10.284 0.921219 10.284 0.999791V2.14265H5.71261V0.999791C5.71261 0.921219 5.64833 0.856934 5.56975 0.856934H4.56975C4.49118 0.856934 4.4269 0.921219 4.4269 0.999791V2.14265H1.4269C1.11083 2.14265 0.855469 2.39801 0.855469 2.71408V14.5712C0.855469 14.8873 1.11083 15.1426 1.4269 15.1426H14.5698C14.8858 15.1426 15.1412 14.8873 15.1412 14.5712V2.71408C15.1412 2.39801 14.8858 2.14265 14.5698 2.14265ZM13.8555 13.8569H2.14118V7.07122H13.8555V13.8569ZM2.14118 5.85693V3.42836H4.4269V4.28551C4.4269 4.36408 4.49118 4.42836 4.56975 4.42836H5.56975C5.64833 4.42836 5.71261 4.36408 5.71261 4.28551V3.42836H10.284V4.28551C10.284 4.36408 10.3483 4.42836 10.4269 4.42836H11.4269C11.5055 4.42836 11.5698 4.36408 11.5698 4.28551V3.42836H13.8555V5.85693H2.14118Z" fill="#121212" fill-opacity="0.25"/>
</g>
<defs>
<clipPath id="clip0_907_2725">
<rect width="16" height="16" fill="white"/>
</clipPath>
</defs>
</svg>
