<svg width="23" height="25" viewBox="0 0 23 25" fill="none" xmlns="http://www.w3.org/2000/svg">
<g clip-path="url(#clip0_782_2411)">
<path d="M5.79187 22.2103V9.83525H1.96938V22.2103H5.79187ZM5.79187 5.46275C5.76437 4.33525 5.04938 3.51025 3.83938 3.51025C2.62938 3.51025 1.85938 4.33525 1.85938 5.46275C1.85938 6.53525 2.62938 7.41525 3.81188 7.41525H3.83938C5.04938 7.41525 5.79187 6.53525 5.79187 5.46275ZM12.0344 22.2103V15.1703C12.0344 14.8128 12.0619 14.4003 12.1719 14.1528C12.4744 13.3828 13.1894 12.6128 14.3444 12.6128C15.8569 12.6128 16.7919 13.4928 16.7919 15.1703V22.2103H20.6419V14.9778C20.6419 11.1278 18.5794 9.28525 15.8019 9.28525C13.5194 9.28525 12.5569 10.5503 11.9794 11.4028L12.0069 9.75275H8.21188C8.29438 10.9353 8.21188 22.2103 8.21188 22.2103H12.0344Z" fill="#666666"/>
</g>
<defs>
<clipPath id="clip0_782_2411">
<rect width="22" height="24" fill="white" transform="translate(0.265625 0.860352)"/>
</clipPath>
</defs>
</svg>
