<svg width="26" height="25" viewBox="0 0 26 25" fill="none" xmlns="http://www.w3.org/2000/svg">
<g clip-path="url(#clip0_782_2415)">
<path d="M22.7812 7.63555C22.1812 8.46055 21.5812 9.21055 20.7562 9.73555V10.3355C20.7562 11.4605 20.6063 12.5105 20.3063 13.6355C20.0063 14.7605 19.4812 15.7355 18.8812 16.7855C18.2062 17.7605 17.4563 18.6605 16.5563 19.4855C15.6563 20.3105 14.5312 20.8355 13.3312 21.3605C12.0562 21.8105 10.6312 22.0355 9.20625 22.1105C6.95625 22.1105 4.85625 21.4355 2.90625 20.2355C3.20625 20.2355 3.58125 20.3105 3.88125 20.3105C5.75625 20.3105 7.48125 19.7105 8.98125 18.5105C8.08125 18.5105 7.25625 18.2105 6.65625 17.6855C6.05625 17.1605 5.38125 16.3355 5.15625 15.5855C5.38125 15.6605 5.75625 15.6605 5.90625 15.6605C6.20625 15.6605 6.65625 15.5855 6.95625 15.5105C6.05625 15.2855 5.23125 14.7605 4.63125 14.0855C4.03125 13.4105 3.58125 12.4355 3.58125 11.4605V11.3855C4.25625 11.6855 4.85625 11.8355 5.53125 11.9105C4.93125 11.5355 4.48125 11.0105 4.18125 10.4855C3.88125 9.96055 3.65625 9.13555 3.65625 8.53555C3.65625 7.78555 3.80625 7.11055 4.25625 6.51055C5.30625 7.71055 6.50625 8.76055 8.00625 9.51055C9.50625 10.2605 11.0063 10.7105 12.7313 10.7855C12.6562 10.4855 12.6562 10.1105 12.6562 9.81055C12.6562 8.68555 13.0312 7.71055 13.8563 6.88555C14.6813 6.06055 15.5812 5.68555 16.7062 5.68555C17.9062 5.68555 18.8812 6.06055 19.7062 6.96055C20.6062 6.81055 21.5063 6.51055 22.3312 5.98555C22.0312 6.96055 21.4312 7.71055 20.5312 8.23555C21.2062 8.16055 21.9562 7.93555 22.7812 7.63555Z" fill="#666666"/>
</g>
<defs>
<clipPath id="clip0_782_2415">
<rect width="25" height="21" fill="white" transform="translate(0.265625 3.36035)"/>
</clipPath>
</defs>
</svg>
